<svg width="103" height="112" viewBox="0 0 103 112" fill="none" xmlns="http://www.w3.org/2000/svg">
<path d="M12.1481 111.935C9.05173 111.935 6.40202 110.72 4.19893 108.292C1.99585 105.863 0.892425 102.94 0.888672 99.5224V12.6351C0.888672 9.22169 1.99209 6.30063 4.19893 3.87192C6.40578 1.44322 9.05549 0.226794 12.1481 0.222656H74.0747L102.223 31.2538V99.5224C102.223 102.936 101.122 105.859 98.9186 108.292C96.7155 110.725 94.0639 111.939 90.9638 111.935H12.1481ZM23.4075 87.1099H79.7044V74.6974H23.4075V87.1099ZM23.4075 62.285H79.7044V49.8725H23.4075V62.285ZM68.445 37.4601H90.9638L68.445 12.6351V37.4601ZM23.4075 37.4601H51.556V25.0476H23.4075V37.4601Z" fill="black"/>
</svg>
