<svg width="105" height="83" viewBox="0 0 105 83" fill="none" xmlns="http://www.w3.org/2000/svg">
<path d="M24.2386 22.0366C24.2386 20.3265 24.5755 18.633 25.2299 17.053C25.8844 15.473 26.8437 14.0373 28.0529 12.8281C29.2622 11.6188 30.6979 10.6595 32.2779 10.005C33.8579 9.35058 35.5513 9.01373 37.2615 9.01373C38.9717 9.01373 40.6652 9.35058 42.2452 10.005C43.8252 10.6595 45.2608 11.6188 46.4701 12.8281C47.6794 14.0373 48.6387 15.473 49.2931 17.053C49.9476 18.633 50.2845 20.3265 50.2845 22.0366C50.2845 25.4905 48.9124 28.803 46.4701 31.2452C44.0279 33.6875 40.7154 35.0596 37.2615 35.0596C33.8076 35.0596 30.4952 33.6875 28.0529 31.2452C25.6107 28.803 24.2386 25.4905 24.2386 22.0366ZM37.2615 0.331787C31.5051 0.331787 25.9843 2.61854 21.9139 6.68899C17.8434 10.7594 15.5567 16.2802 15.5567 22.0366C15.5567 27.7931 17.8434 33.3138 21.9139 37.3843C25.9843 41.4547 31.5051 43.7415 37.2615 43.7415C43.018 43.7415 48.5387 41.4547 52.6092 37.3843C56.6796 33.3138 58.9664 27.7931 58.9664 22.0366C58.9664 16.2802 56.6796 10.7594 52.6092 6.68899C48.5387 2.61854 43.018 0.331787 37.2615 0.331787ZM67.6483 0.331787H63.3074V9.01373H67.6483C69.3585 9.01373 71.052 9.35058 72.632 10.005C74.212 10.6595 75.6476 11.6188 76.8569 12.8281C78.0662 14.0373 79.0255 15.473 79.6799 17.053C80.3344 18.633 80.6713 20.3265 80.6713 22.0366C80.6713 23.7468 80.3344 25.4403 79.6799 27.0203C79.0255 28.6003 78.0662 30.0359 76.8569 31.2452C75.6476 32.4545 74.212 33.4138 72.632 34.0682C71.052 34.7227 69.3585 35.0596 67.6483 35.0596H63.3074V43.7415H67.6483C73.4048 43.7415 78.9255 41.4547 82.996 37.3843C87.0664 33.3138 89.3532 27.7931 89.3532 22.0366C89.3532 16.2802 87.0664 10.7594 82.996 6.68899C78.9255 2.61854 73.4048 0.331787 67.6483 0.331787ZM0.363281 74.1283C0.363281 68.3718 2.65004 62.8511 6.72049 58.7807C10.7909 54.7102 16.3117 52.4234 22.0681 52.4234H52.4549C58.2114 52.4234 63.7321 54.7102 67.8026 58.7807C71.873 62.8511 74.1598 68.3718 74.1598 74.1283V82.8102H65.4779V74.1283C65.4779 70.6744 64.1058 67.362 61.6635 64.9197C59.2213 62.4774 55.9088 61.1054 52.4549 61.1054H22.0681C18.6142 61.1054 15.3018 62.4774 12.8595 64.9197C10.4173 67.362 9.04522 70.6744 9.04522 74.1283V82.8102H0.363281V74.1283ZM104.547 74.1283C104.547 71.278 103.985 68.4556 102.894 65.8222C101.804 63.1889 100.205 60.7961 98.1894 58.7807C96.1739 56.7652 93.7812 55.1664 91.1478 54.0756C88.5145 52.9849 85.6921 52.4234 82.8417 52.4234H78.5008V61.1054H82.8417C86.2956 61.1054 89.6081 62.4774 92.0503 64.9197C94.4926 67.362 95.8647 70.6744 95.8647 74.1283V82.8102H104.547V74.1283Z" fill="black"/>
</svg>
