<svg width="116" height="95" viewBox="0 0 116 95" fill="none" xmlns="http://www.w3.org/2000/svg">
<path d="M24.75 59.9375V51.375H33V59.9375H24.75ZM0 17.125C0 12.5832 1.73839 8.22736 4.83274 5.0158C7.92709 1.80424 12.1239 0 16.5 0H74.25C78.6261 0 82.8229 1.80424 85.9173 5.0158C89.0116 8.22736 90.75 12.5832 90.75 17.125V72.7812C90.75 73.9167 91.1846 75.0057 91.9582 75.8086C92.7318 76.6114 93.781 77.0625 94.875 77.0625C95.969 77.0625 97.0182 76.6114 97.7918 75.8086C98.5654 75.0057 99 73.9167 99 72.7812V17.125C103.376 17.125 107.573 18.9292 110.667 22.1408C113.762 25.3524 115.5 29.7082 115.5 34.25V72.7812C115.5 78.4585 113.327 83.9033 109.459 87.9178C105.591 91.9322 100.345 94.1875 94.875 94.1875H20.625C15.1549 94.1875 9.90886 91.9322 6.04092 87.9178C2.17298 83.9033 0 78.4585 0 72.7812V17.125ZM20.625 25.6875C19.531 25.6875 18.4818 26.1386 17.7082 26.9415C16.9346 27.7443 16.5 28.8333 16.5 29.9688C16.5 31.1042 16.9346 32.1932 17.7082 32.9961C18.4818 33.7989 19.531 34.25 20.625 34.25H70.125C71.219 34.25 72.2682 33.7989 73.0418 32.9961C73.8154 32.1932 74.25 31.1042 74.25 29.9688C74.25 28.8333 73.8154 27.7443 73.0418 26.9415C72.2682 26.1386 71.219 25.6875 70.125 25.6875H20.625ZM20.625 42.8125C19.531 42.8125 18.4818 43.2636 17.7082 44.0664C16.9346 44.8693 16.5 45.9583 16.5 47.0938V64.2188C16.5 65.3542 16.9346 66.4432 17.7082 67.2461C18.4818 68.0489 19.531 68.5 20.625 68.5H37.125C38.219 68.5 39.2682 68.0489 40.0418 67.2461C40.8154 66.4432 41.25 65.3542 41.25 64.2188V47.0938C41.25 45.9583 40.8154 44.8693 40.0418 44.0664C39.2682 43.2636 38.219 42.8125 37.125 42.8125H20.625ZM53.625 42.8125C52.531 42.8125 51.4818 43.2636 50.7082 44.0664C49.9346 44.8693 49.5 45.9583 49.5 47.0938C49.5 48.2292 49.9346 49.3182 50.7082 50.1211C51.4818 50.9239 52.531 51.375 53.625 51.375H70.125C71.219 51.375 72.2682 50.9239 73.0418 50.1211C73.8154 49.3182 74.25 48.2292 74.25 47.0938C74.25 45.9583 73.8154 44.8693 73.0418 44.0664C72.2682 43.2636 71.219 42.8125 70.125 42.8125H53.625ZM53.625 59.9375C52.531 59.9375 51.4818 60.3886 50.7082 61.1914C49.9346 61.9943 49.5 63.0833 49.5 64.2188C49.5 65.3542 49.9346 66.4432 50.7082 67.2461C51.4818 68.0489 52.531 68.5 53.625 68.5H70.125C71.219 68.5 72.2682 68.0489 73.0418 67.2461C73.8154 66.4432 74.25 65.3542 74.25 64.2188C74.25 63.0833 73.8154 61.9943 73.0418 61.1914C72.2682 60.3886 71.219 59.9375 70.125 59.9375H53.625Z" fill="black"/>
</svg>
