<svg width="40" height="40" viewBox="0 0 40 40" fill="none" xmlns="http://www.w3.org/2000/svg">
<circle cx="20" cy="19.9999" r="20" fill="#D9D9D9"/>
<path d="M22.8333 25.66C19.4311 25.6563 16.1694 24.547 13.7637 22.5753C11.3579 20.6035 10.0044 17.9303 10 15.1419C10 14.3086 10.4039 13.5095 11.1228 12.9203C11.8416 12.3311 12.8167 12.0001 13.8333 12.0001C14.0486 11.9987 14.2635 12.0147 14.475 12.0479C14.6794 12.0727 14.8804 12.1139 15.075 12.1708C15.2119 12.2102 15.3338 12.2781 15.4288 12.368C15.5238 12.4578 15.5886 12.5664 15.6167 12.6831L16.7583 16.781C16.7891 16.8923 16.7854 17.0081 16.7476 17.1178C16.7097 17.2276 16.6389 17.3278 16.5417 17.4094C16.4333 17.505 16.425 17.5118 15.4 17.949C16.2208 19.4248 17.661 20.61 19.4583 21.2888C20 20.4419 20.0083 20.4351 20.125 20.3463C20.2245 20.2666 20.3468 20.2085 20.4808 20.1775C20.6147 20.1465 20.7559 20.1435 20.8917 20.1687L25.8917 21.1044C26.0294 21.1306 26.1568 21.1851 26.2617 21.2627C26.3667 21.3404 26.4458 21.4387 26.4917 21.5483C26.562 21.7105 26.615 21.8773 26.65 22.0469C26.6835 22.2186 26.7003 22.3922 26.7 22.566C26.6846 23.3957 26.2694 24.1867 25.545 24.7664C24.8205 25.346 23.8457 25.6673 22.8333 25.66Z" fill="#231F20"/>
</svg>
