<svg width="40" height="40" viewBox="0 0 40 40" fill="none" xmlns="http://www.w3.org/2000/svg">
<circle cx="20" cy="19.9999" r="20" fill="#D9D9D9"/>
<path d="M25.4583 12.4319C25.4583 12.3187 25.4035 12.2101 25.3058 12.13C25.2081 12.05 25.0756 12.005 24.9375 12.005H22.3333C21.022 11.9515 19.7381 12.3255 18.7622 13.0454C17.7863 13.7652 17.1977 14.7724 17.125 15.8469V18.152H14.5208C14.3827 18.152 14.2502 18.1969 14.1525 18.277C14.0549 18.357 14 18.4656 14 18.5788V20.7986C14 20.9118 14.0549 21.0204 14.1525 21.1004C14.2502 21.1805 14.3827 21.2254 14.5208 21.2254H17.125V26.9455C17.125 27.0587 17.1799 27.1673 17.2775 27.2474C17.3752 27.3274 17.5077 27.3724 17.6458 27.3724H20.7708C20.909 27.3724 21.0414 27.3274 21.1391 27.2474C21.2368 27.1673 21.2917 27.0587 21.2917 26.9455V21.2254H24.0208C24.1367 21.2268 24.2497 21.1965 24.3422 21.1393C24.4346 21.0821 24.5011 21.0012 24.5312 20.9096L25.2812 18.6898C25.302 18.6268 25.3048 18.5606 25.2894 18.4965C25.274 18.4324 25.2409 18.3721 25.1926 18.3201C25.1443 18.2682 25.0821 18.226 25.0108 18.1968C24.9395 18.1677 24.8609 18.1523 24.7812 18.152H21.2917V15.8469C21.3176 15.6355 21.4387 15.4397 21.6313 15.2976C21.8239 15.1556 22.0742 15.0774 22.3333 15.0785H24.9375C25.0756 15.0785 25.2081 15.0335 25.3058 14.9535C25.4035 14.8734 25.4583 14.7648 25.4583 14.6516V12.4319Z" fill="#231F20"/>
</svg>
