<svg width="158" height="68" viewBox="0 0 158 68" fill="none" xmlns="http://www.w3.org/2000/svg">
<path d="M146.414 8.73379C145.082 14.0336 140.279 17.75 134.777 17.75C129.275 17.75 124.472 14.0336 123.139 8.73379L121.978 4.1668C121.424 1.9291 119.128 0.568164 116.859 1.13086C114.589 1.69355 113.23 3.95742 113.798 6.2082L114.946 10.7752C116.397 16.533 120.25 21.1916 125.277 23.8088V63.8125C125.277 66.1287 127.164 68 129.499 68C131.835 68 133.721 66.1287 133.721 63.8125V47.0625H135.832V63.8125C135.832 66.1287 137.719 68 140.055 68C142.39 68 144.277 66.1287 144.277 63.8125V23.8088C149.304 21.1916 153.157 16.533 154.608 10.7752L155.756 6.2082C156.323 3.97051 154.951 1.69355 152.682 1.13086C150.412 0.568164 148.13 1.9291 147.576 4.1668L146.428 8.73379H146.414ZM134.777 13.5625C136.457 13.5625 138.068 12.9007 139.255 11.7228C140.443 10.5448 141.11 8.94714 141.11 7.28125C141.11 5.61536 140.443 4.0177 139.255 2.83974C138.068 1.66177 136.457 1 134.777 1C133.097 1 131.486 1.66177 130.299 2.83974C129.111 4.0177 128.444 5.61536 128.444 7.28125C128.444 8.94714 129.111 10.5448 130.299 11.7228C131.486 12.9007 133.097 13.5625 134.777 13.5625ZM92.5547 13.5625C94.2344 13.5625 95.8453 12.9007 97.033 11.7228C98.2208 10.5448 98.888 8.94714 98.888 7.28125C98.888 5.61536 98.2208 4.0177 97.033 2.83974C95.8453 1.66177 94.2344 1 92.5547 1C90.875 1 89.2641 1.66177 88.0763 2.83974C86.8886 4.0177 86.2214 5.61536 86.2214 7.28125C86.2214 8.94714 86.8886 10.5448 88.0763 11.7228C89.2641 12.9007 90.875 13.5625 92.5547 13.5625ZM91.4991 17.75C86.8415 17.75 83.0547 21.5057 83.0547 26.125V63.8125C83.0547 66.1287 84.9415 68 87.2769 68C89.6123 68 91.4991 66.1287 91.4991 63.8125V47.0625H93.6102V63.8125C93.6102 66.1287 95.497 68 97.8325 68C100.168 68 102.055 66.1287 102.055 63.8125V34.0682L103.77 36.7508C104.548 37.9547 105.894 38.7006 107.332 38.7006H113.666C116.001 38.7006 117.888 36.8293 117.888 34.5131C117.888 32.1969 116.001 30.3256 113.666 30.3256H109.655L104.72 22.618C102.794 19.582 99.429 17.75 95.8137 17.75H91.4991Z" fill="black"/>
<g clip-path="url(#clip0_474_1216)">
<path d="M10.6944 12.75C12.3962 12.75 14.0284 12.0784 15.2317 10.8828C16.4351 9.68726 17.1111 8.06575 17.1111 6.375C17.1111 4.68425 16.4351 3.06274 15.2317 1.86719C14.0284 0.67165 12.3962 0 10.6944 0C8.99264 0 7.36053 0.67165 6.15718 1.86719C4.95382 3.06274 4.27778 4.68425 4.27778 6.375C4.27778 8.06575 4.95382 9.68726 6.15718 10.8828C7.36053 12.0784 8.99264 12.75 10.6944 12.75ZM8.55556 17C3.83663 17 0 20.8117 0 25.5V42.5C0 44.8508 1.91163 46.75 4.27778 46.75C5.58785 46.75 6.75087 46.1656 7.53958 45.2625L10.7479 64.4539C11.1356 66.7648 13.3413 68.332 15.6674 67.9469C17.9934 67.5617 19.5708 65.3703 19.1832 63.0594L16.4561 46.75H18.5549L22.5653 64.6664C23.0733 66.9641 25.3592 68.3984 27.6719 67.8938C29.9845 67.3891 31.4283 65.118 30.9203 62.8203L23.2604 28.5547L38.8075 35.7C38.8743 35.7398 38.9545 35.7664 39.0214 35.793C40.171 36.2711 41.4276 36.2047 42.4837 35.7C42.9382 35.4875 43.366 35.182 43.7269 34.8102C44.1413 34.3852 44.4622 33.8805 44.676 33.2961C44.6894 33.2562 44.7028 33.2031 44.7161 33.1633L45.0503 32.1672C45.8123 29.8961 47.4967 28.0633 49.6891 27.0938L50.7585 26.6289C50.8922 26.5758 51.0125 26.5227 51.1462 26.4695L48.887 34.9031C48.1384 37.7055 48.8736 40.6937 50.8521 42.832L60.3033 53.0719L63.2443 64.7727C63.8191 67.0438 66.1451 68.4383 68.4311 67.8672C70.717 67.2961 72.1207 64.9852 71.5458 62.7141L68.4712 50.482C68.2172 49.4461 67.6958 48.5031 66.974 47.7195L60.3568 40.5477L62.9368 31.8484L64.2201 34.9031C64.8083 36.3109 65.8911 37.4664 67.2681 38.157L70.8373 39.9234C72.9495 40.9727 75.5161 40.1227 76.5722 38.0242C77.6283 35.9258 76.7727 33.3758 74.6606 32.3266L71.7865 30.9055L69.7411 26.018C67.4418 20.5594 62.0679 17 56.1057 17C53.0578 17 50.05 17.6375 47.2694 18.8594L46.2 19.3242C42.9631 20.7605 40.2509 23.1536 38.4332 26.1773L21.028 18.182C19.3436 17.3984 17.4988 17 15.6406 17H8.55556ZM62.0278 12.75C63.7296 12.75 65.3617 12.0784 66.565 10.8828C67.7684 9.68726 68.4444 8.06575 68.4444 6.375C68.4444 4.68425 67.7684 3.06274 66.565 1.86719C65.3617 0.67165 63.7296 0 62.0278 0C60.326 0 58.6939 0.67165 57.4905 1.86719C56.2871 3.06274 55.6111 4.68425 55.6111 6.375C55.6111 8.06575 56.2871 9.68726 57.4905 10.8828C58.6939 12.0784 60.326 12.75 62.0278 12.75ZM46.7481 44.5719L43.4061 52.8594L35.4655 60.7484C33.7944 62.4086 33.7944 65.1047 35.4655 66.7648C37.1365 68.425 39.8502 68.425 41.5212 66.7648L49.7693 58.5703C50.3842 57.9594 50.8654 57.2289 51.1863 56.432L53.1246 51.6242L47.6839 45.7273C47.3497 45.3687 47.0422 44.9836 46.7481 44.5852V44.5719Z" fill="black"/>
</g>
<defs>
<clipPath id="clip0_474_1216">
<rect width="77" height="68" fill="white"/>
</clipPath>
</defs>
</svg>
