<svg width="114" height="126" viewBox="0 0 114 126" fill="none" xmlns="http://www.w3.org/2000/svg">
<path d="M51.1667 4.66669C25.395 4.66669 4.5 25.3459 4.5 50.8608C4.5 59.57 6.9325 67.7192 11.1675 74.6667M71.5833 57.1667V68.8334M89.0833 57.1667V68.8334M71.5833 10.5V22.1667M89.0833 10.5V22.1667M62.8333 30.9167H51.1667M62.8333 48.4167H51.1667M109.5 30.9167H97.8333M109.5 48.4167H97.8333M68.6667 103.833L67.9083 107.608C67.0917 111.732 66.6775 113.791 65.75 115.424C64.3208 117.942 62.0067 119.838 59.2575 120.744C57.4783 121.333 55.3667 121.333 51.1667 121.333C46.9667 121.333 44.855 121.333 43.0758 120.75C40.3256 119.842 38.0114 117.944 36.5833 115.424C35.6558 113.791 35.2417 111.732 34.425 107.608L33.6667 103.833M86.1667 22.1667H74.5C68.9992 22.1667 66.2517 22.1667 64.5425 23.8759C62.8333 25.585 62.8333 28.3325 62.8333 33.8334V45.5C62.8333 51.0009 62.8333 53.7483 64.5425 55.4575C66.2517 57.1667 68.9992 57.1667 74.5 57.1667H86.1667C91.6675 57.1667 94.415 57.1667 96.1242 55.4575C97.8333 53.7483 97.8333 51.0009 97.8333 45.5V33.8334C97.8333 28.3325 97.8333 25.585 96.1242 23.8759C94.415 22.1667 91.6675 22.1667 86.1667 22.1667ZM24.2342 92.7383C23.6975 91.1283 23.4292 90.3175 23.4583 89.6642C23.4913 88.9886 23.7194 88.3371 24.1148 87.7885C24.5103 87.2398 25.0562 86.8174 25.6867 86.5725C26.2933 86.3334 27.145 86.3333 28.8367 86.3333H73.4967C75.1942 86.3333 76.04 86.3334 76.6467 86.5667C77.278 86.812 77.8245 87.2353 78.2201 87.7851C78.6156 88.3349 78.8431 88.9876 78.875 89.6642C78.9042 90.3175 78.6358 91.1225 78.0992 92.7383C77.1075 95.7192 76.6117 97.2125 75.8475 98.42C74.2492 100.944 71.7437 102.758 68.8475 103.489C67.4592 103.833 65.8958 103.833 62.7633 103.833H39.57C36.4375 103.833 34.8683 103.833 33.4858 103.483C30.5905 102.754 28.0853 100.941 26.4858 98.42C25.7217 97.2125 25.2258 95.7192 24.2342 92.7383Z" stroke="black" stroke-width="8" stroke-linecap="round" stroke-linejoin="round"/>
</svg>
