<svg width="102" height="102" viewBox="0 0 102 102" fill="none" xmlns="http://www.w3.org/2000/svg">
<path d="M22.8 22.8H60.4M22.8 41.6H79.2M55.7 60.4H79.2M55.7 79.2H79.2M4 95.18V6.82C4 6.07209 4.29711 5.35481 4.82596 4.82596C5.35481 4.29711 6.07209 4 6.82 4H80.3844C81.1321 4.00066 81.8488 4.2982 82.3772 4.8272L97.1728 19.6228C97.4358 19.8855 97.6444 20.1977 97.7863 20.5413C97.9283 20.8849 98.0009 21.2532 98 21.625V95.18C98 95.5503 97.927 95.917 97.7853 96.2592C97.6436 96.6013 97.4359 96.9122 97.174 97.174C96.9122 97.4359 96.6013 97.6436 96.2592 97.7853C95.917 97.9271 95.5503 98 95.18 98H6.82C6.44967 98 6.08297 97.9271 5.74083 97.7853C5.39869 97.6436 5.08782 97.4359 4.82596 97.174C4.5641 96.9122 4.35638 96.6013 4.21466 96.2592C4.07294 95.917 4 95.5503 4 95.18Z" stroke="black" stroke-width="8" stroke-linecap="round" stroke-linejoin="round"/>
</svg>
