<svg width="105" height="113" viewBox="0 0 105 113" fill="none" xmlns="http://www.w3.org/2000/svg">
<path d="M6.24491 9.35496C5.22665 11.3899 4.72595 13.9109 3.72456 18.9417L0.360355 35.8428C-0.116435 38.1472 -0.120128 40.5251 0.349503 42.831C0.819133 45.1369 1.7522 47.3222 3.0916 49.2532C4.43099 51.1842 6.14852 52.8201 8.13905 54.061C10.1296 55.3019 12.3512 56.1215 14.6679 56.4698C16.9847 56.818 19.3478 56.6875 21.6126 56.0862C23.8774 55.4849 25.9962 54.4255 27.8394 52.9729C29.6825 51.5203 31.2113 49.705 32.3319 47.6382C33.4526 45.5713 34.1416 43.2964 34.3569 40.9527L34.7507 37.0524C34.5375 39.533 34.8416 42.0309 35.6437 44.3867C36.4457 46.7425 37.728 48.9042 39.4086 50.7339C41.0892 52.5635 43.1312 54.0208 45.4041 55.0126C47.677 56.0044 50.1308 56.5089 52.6088 56.4939C55.0867 56.4789 57.5343 55.9447 59.7952 54.9255C62.056 53.9062 64.0804 52.4243 65.7389 50.5745C67.3975 48.7246 68.6538 46.5475 69.4275 44.1822C70.2012 41.8169 70.4754 39.3154 70.2324 36.8376L70.6431 40.9527C70.8584 43.2964 71.5474 45.5713 72.6681 47.6382C73.7887 49.705 75.3175 51.5203 77.1606 52.9729C79.0038 54.4255 81.1226 55.4849 83.3874 56.0862C85.6522 56.6875 88.0153 56.818 90.332 56.4698C92.6488 56.1215 94.8704 55.3019 96.861 54.061C98.8515 52.8201 100.569 51.1842 101.908 49.2532C103.248 47.3222 104.181 45.1369 104.651 42.831C105.12 40.5251 105.116 38.1472 104.64 35.8428L101.275 18.9417C100.274 13.9109 99.7734 11.3955 98.7551 9.35496C97.6941 7.22982 96.2002 5.3526 94.3703 3.84515C92.5405 2.33769 90.4156 1.2337 88.1336 0.604823C85.9396 6.31721e-07 83.3855 0 78.2773 0H26.7227C21.6145 0 19.0604 6.31721e-07 16.8664 0.604823C14.5844 1.2337 12.4595 2.33769 10.6297 3.84515C8.79981 5.3526 7.30591 7.22982 6.24491 9.35496ZM87.768 65.0043C92.1635 65.0154 96.4872 63.8841 100.319 61.7201V67.8305C100.319 89.1463 100.319 99.807 93.7256 106.426C88.4205 111.762 80.5163 112.797 66.5644 113V93.267C66.5644 87.9818 66.5644 85.3421 65.4336 83.375C64.693 82.0862 63.6278 81.0159 62.3451 80.2718C60.3873 79.1356 57.7601 79.1356 52.5 79.1356C47.2399 79.1356 44.6127 79.1356 42.6549 80.2718C41.3722 81.0159 40.307 82.0862 39.5664 83.375C38.4356 85.3421 38.4356 87.9818 38.4356 93.267V113C24.4837 112.797 16.5795 111.756 11.2743 106.426C4.68095 99.807 4.68095 89.1463 4.68095 67.8305V61.7201C8.51442 63.885 12.8402 65.0164 17.2377 65.0043C23.739 65.0083 29.9984 62.5267 34.7451 58.0629C39.5817 62.5416 45.9227 65.0206 52.5 65.0043C59.0773 65.0206 65.4183 62.5416 70.2549 58.0629C75.0016 62.5267 81.2666 65.0083 87.768 65.0043Z" fill="black"/>
</svg>
