<svg width="134" height="96" viewBox="0 0 134 96" fill="none" xmlns="http://www.w3.org/2000/svg">
<path d="M132.896 33.4476L119.531 6.83878C118.919 5.61081 118.069 4.51515 117.032 3.61446C115.994 2.71377 114.789 2.02571 113.485 1.58961C112.18 1.15351 110.802 0.977927 109.43 1.0729C108.057 1.16787 106.717 1.53153 105.485 2.1431L93.3505 8.19009L68.9343 0.301347C67.6745 -0.100449 66.3203 -0.100449 65.0604 0.301347L40.6443 8.19009L28.5095 2.1431C27.2781 1.53153 25.9377 1.16787 24.5651 1.0729C23.1926 0.977927 21.8147 1.15351 20.5102 1.58961C19.2058 2.02571 18.0004 2.71377 16.9629 3.61446C15.9254 4.51515 15.0763 5.61081 14.464 6.83878L1.09895 33.4476C0.485324 34.675 0.120434 36.0108 0.025142 37.3788C-0.0701496 38.7467 0.106026 40.12 0.543596 41.4201C0.981166 42.7201 1.67155 43.9215 2.57528 44.9555C3.479 45.9894 4.57835 46.8357 5.81047 47.446L19.7723 54.406L46.5651 73.9244C47.2001 74.3867 47.9154 74.728 48.6748 74.9314L81.1319 83.2793C81.6453 83.4095 82.1728 83.4761 82.7025 83.4775C84.368 83.4761 85.9648 82.8155 87.1417 81.641L114.688 54.1869L128.21 47.446C130.694 46.2089 132.583 44.0391 133.462 41.4139C134.341 38.7887 134.137 35.9232 132.896 33.4476ZM102.47 48.6564L88.0631 35.0911C86.8721 33.9682 85.2878 33.3538 83.6485 33.3791C82.0091 33.4045 80.4447 34.0676 79.2892 35.2268C74.2322 40.3086 66.1702 43.9973 57.9251 40.2094L77.9176 20.905H89.8116L103.323 47.8425L102.47 48.6564ZM24.7612 14.2788L31.7081 17.738L20.1911 40.6425L13.2442 37.1833L24.7612 14.2788ZM80.776 70.2618L52.9832 63.1296L30.9962 47.1329L44.5758 20.0858L66.9974 12.8388L67.8821 13.1258L47.1043 33.2233L47.0363 33.2859C45.929 34.3906 45.0846 35.7289 44.5654 37.2022C44.0461 38.6754 43.8652 40.246 44.036 41.7981C44.2068 43.3503 44.725 44.8445 45.5523 46.1705C46.3796 47.4966 47.495 48.6207 48.8162 49.4599C59.7835 56.4461 72.8973 55.7574 83.5401 48.0356L93.5913 57.5052L80.776 70.2618ZM113.757 40.6425L102.24 17.738L109.186 14.2788L120.677 37.1833L113.757 40.6425ZM62.0503 91.3037C61.8441 92.0999 61.4826 92.8478 60.9864 93.5047C60.4901 94.1617 59.8689 94.7147 59.1582 95.1323C58.4475 95.55 57.6612 95.824 56.8442 95.9387C56.0272 96.0535 55.1955 96.0067 54.3967 95.8011L40.4715 92.2167C39.7021 92.0187 38.9773 91.677 38.3357 91.2098L25.5988 81.9123C24.2961 80.9171 23.436 79.4533 23.2024 77.8341C22.9688 76.2149 23.3804 74.5689 24.3491 73.2483C25.3177 71.9277 26.7665 71.0374 28.3855 70.7679C30.0044 70.4983 31.6649 70.871 33.0116 71.8062L44.7747 80.3732L57.5377 83.6549C58.3388 83.8603 59.0914 84.2213 59.7522 84.7173C60.4129 85.2132 60.9689 85.8344 61.3882 86.5451C61.8075 87.2557 62.0818 88.0419 62.1954 88.8586C62.3091 89.6752 62.2597 90.5061 62.0503 91.3037Z" fill="black"/>
</svg>
