<svg width="35" height="35" viewBox="0 0 35 35" fill="none" xmlns="http://www.w3.org/2000/svg">
<path d="M13.723 10.0109C13.723 11.1027 13.723 12.1609 14.0674 13.152C10.4477 17.4016 0 29.4869 0 29.4869L0.243555 32.5355C0.243555 32.5355 3.16621 35.307 3.60293 34.8871C4.89629 33.6273 5.68574 32.7707 5.68574 32.7707L6.29379 29.13L10.2503 28.8386L10.5678 24.9081L14.7359 24.8283L14.7771 20.6215L19.2022 20.7979L19.958 19.2156C21.2598 19.7783 22.444 20.0051 23.9641 20.0051C29.717 20.0051 34.3782 15.5203 34.3782 9.99414C34.3782 4.46797 29.7137 0 23.9607 0C18.2078 0 13.723 4.48477 13.723 10.0109ZM29.5751 8.0625C29.5751 8.70782 29.3837 9.33865 29.0252 9.87521C28.6667 10.4118 28.1571 10.83 27.5609 11.0769C26.9647 11.3239 26.3087 11.3885 25.6758 11.2626C25.0428 11.1367 24.4615 10.826 24.0052 10.3696C23.5489 9.91333 23.2381 9.33196 23.1122 8.69904C22.9863 8.06612 23.0509 7.41008 23.2979 6.81388C23.5448 6.21769 23.963 5.70811 24.4996 5.34959C25.0362 4.99107 25.667 4.79971 26.3123 4.79971C26.7409 4.79927 27.1654 4.88336 27.5614 5.04717C27.9575 5.21099 28.3174 5.4513 28.6204 5.75437C28.9235 6.05744 29.1638 6.4173 29.3276 6.81336C29.4914 7.20942 29.5755 7.6339 29.5751 8.0625Z" fill="black"/>
</svg>
