<svg width="40" height="40" viewBox="0 0 40 40" fill="none" xmlns="http://www.w3.org/2000/svg">
<circle cx="20" cy="20" r="20" fill="#D9D9D9"/>
<path d="M28.32 9.07999H11.68C10.2448 9.07999 9.07996 10.2448 9.07996 11.68V28.32C9.07996 29.7552 10.2448 30.92 11.68 30.92H28.32C29.7552 30.92 30.92 29.7552 30.92 28.32V11.68C30.92 10.2448 29.7552 9.07999 28.32 9.07999ZM15.84 17.4V27.28H12.72V17.4H15.84ZM12.72 14.5244C12.72 13.7964 13.344 13.24 14.28 13.24C15.216 13.24 15.8036 13.7964 15.84 14.5244C15.84 15.2524 15.2576 15.84 14.28 15.84C13.344 15.84 12.72 15.2524 12.72 14.5244ZM27.28 27.28H24.16C24.16 27.28 24.16 22.4648 24.16 22.08C24.16 21.04 23.64 20 22.34 19.9792H22.2984C21.04 19.9792 20.52 21.0504 20.52 22.08C20.52 22.5532 20.52 27.28 20.52 27.28H17.4V17.4H20.52V18.7312C20.52 18.7312 21.5236 17.4 23.5412 17.4C25.6056 17.4 27.28 18.8196 27.28 21.6952V27.28Z" fill="black"/>
</svg>
