<svg width="25" height="36" viewBox="0 0 25 36" fill="none" xmlns="http://www.w3.org/2000/svg">
<path d="M12.5 17.1C11.316 17.1 10.1805 16.6259 9.34327 15.782C8.50606 14.9381 8.03571 13.7935 8.03571 12.6C8.03571 11.4065 8.50606 10.2619 9.34327 9.41802C10.1805 8.57411 11.316 8.1 12.5 8.1C13.684 8.1 14.8195 8.57411 15.6567 9.41802C16.4939 10.2619 16.9643 11.4065 16.9643 12.6C16.9643 13.1909 16.8488 13.7761 16.6245 14.3221C16.4001 14.868 16.0713 15.3641 15.6567 15.782C15.2422 16.1998 14.75 16.5313 14.2084 16.7575C13.6668 16.9836 13.0863 17.1 12.5 17.1ZM12.5 0C9.18479 0 6.00537 1.3275 3.66116 3.69045C1.31696 6.05341 0 9.25827 0 12.6C0 22.05 12.5 36 12.5 36C12.5 36 25 22.05 25 12.6C25 9.25827 23.683 6.05341 21.3388 3.69045C18.9946 1.3275 15.8152 0 12.5 0Z" fill="black"/>
</svg>
