<svg width="25" height="26" viewBox="0 0 25 26" fill="none" xmlns="http://www.w3.org/2000/svg">
<path d="M18.1237 23.2257C13.8709 23.2201 9.79382 21.5056 6.78662 18.4581C3.77941 15.4107 2.08754 11.279 2.08203 6.96923C2.08203 5.68139 2.58687 4.44629 3.48548 3.53564C4.38409 2.625 5.60287 2.1134 6.8737 2.1134C7.1428 2.11132 7.41146 2.13607 7.67578 2.18729C7.93131 2.22561 8.18252 2.28926 8.42578 2.37731C8.59687 2.43814 8.74933 2.54318 8.86808 2.68203C8.98683 2.82089 9.06776 2.98875 9.10286 3.16902L10.5299 9.50271C10.5684 9.67463 10.5638 9.85357 10.5165 10.0232C10.4692 10.1929 10.3807 10.3478 10.2591 10.4739C10.1237 10.6217 10.1133 10.6322 8.83203 11.3078C9.85807 13.5888 11.6583 15.4207 13.9049 16.4698C14.582 15.1608 14.5924 15.1502 14.7383 15.013C14.8627 14.8898 15.0156 14.8002 15.183 14.7522C15.3504 14.7043 15.527 14.6996 15.6966 14.7386L21.9466 16.1848C22.1188 16.2252 22.278 16.3095 22.4092 16.4295C22.5404 16.5495 22.6393 16.7014 22.6966 16.8709C22.7845 17.1215 22.8508 17.3793 22.8945 17.6415C22.9365 17.9068 22.9574 18.1751 22.957 18.4438C22.9378 19.7261 22.4188 20.9487 21.5133 21.8446C20.6077 22.7405 19.3892 23.237 18.1237 23.2257Z" fill="#231F20"/>
</svg>
