<svg width="118" height="80" viewBox="0 0 118 80" fill="none" xmlns="http://www.w3.org/2000/svg">
<path d="M47.2 57.1429L77.821 40L47.2 22.8571V57.1429ZM115.404 12.4C116.171 15.0857 116.702 18.6857 117.056 23.2571C117.469 27.8286 117.646 31.7714 117.646 35.2L118 40C118 52.5143 117.056 61.7143 115.404 67.6C113.929 72.7429 110.507 76.0571 105.197 77.4857C102.424 78.2286 97.35 78.7429 89.562 79.0857C81.892 79.4857 74.871 79.6572 68.381 79.6572L59 80C34.279 80 18.88 79.0857 12.803 77.4857C7.493 76.0571 4.071 72.7429 2.596 67.6C1.829 64.9143 1.298 61.3143 0.944001 56.7429C0.531 52.1714 0.354 48.2286 0.354 44.8L0 40C0 27.4857 0.944 18.2857 2.596 12.4C4.071 7.25714 7.493 3.94286 12.803 2.51429C15.576 1.77143 20.65 1.25714 28.438 0.914285C36.108 0.514285 43.129 0.342857 49.619 0.342857L59 0C83.721 0 99.12 0.914286 105.197 2.51429C110.507 3.94286 113.929 7.25714 115.404 12.4Z" fill="black"/>
</svg>
