<svg width="127" height="92" viewBox="0 0 127 92" fill="none" xmlns="http://www.w3.org/2000/svg">
<path d="M35.7656 0.737488C35.4469 0.737488 35.1016 0.737487 34.7828 0.76405C25.7781 0.97655 14.7281 3.60624 0.96875 9.71561V74.3687C17.1187 66.7187 29.3109 64.5141 39.2719 65.5766C42.9109 65.9484 46.2578 66.7719 49.3391 67.8609L37.3594 46.9297C35.075 47.8594 32.6047 48.3906 30.0016 48.3906C19.3208 48.3906 10.6109 39.6781 10.6109 29C10.6109 18.3219 19.3208 9.60936 30.0016 9.60936C40.6797 9.60936 49.3922 18.3219 49.3922 29C49.3922 35.375 46.2844 41.0328 41.5031 44.5922L56.7234 71.1547C58.3703 72.0047 59.9375 72.9344 61.4781 73.864V9.31718C55.3156 4.61561 48.1437 1.34843 38.6344 0.817176C37.7047 0.764051 36.7484 0.737488 35.7656 0.737488ZM92.0781 0.737488C91.0953 0.737488 90.1125 0.764051 89.1828 0.817176C79.6734 1.34843 72.5281 4.61561 66.3391 9.31718V73.864C72.6875 69.9859 79.6469 66.5062 88.5453 65.5766C98.5062 64.5141 110.725 66.7187 126.848 74.3687V9.71561C113.116 3.60624 102.066 0.97655 93.0609 0.76405C92.7156 0.76405 92.3969 0.737488 92.0781 0.737488ZM30.0016 14.3906C21.9053 14.3906 15.3922 20.8984 15.3922 29C15.3922 37.1016 21.9053 43.6094 30.0016 43.6094C38.1031 43.6094 44.6109 37.1016 44.6109 29C44.6109 20.8984 38.1031 14.3906 30.0016 14.3906ZM30.6125 18.0828H31.3563C24.9547 22.9172 22.1178 29.2656 22.4923 36.7297C15.5702 26.4234 22.8297 18.2953 30.6125 18.0828ZM34.0922 70.2781C25.5922 70.3578 15.0203 72.8812 0.96875 79.8406V91.1297C17.1187 83.4797 29.3109 81.275 39.2719 82.3375C44.2125 82.8687 48.5422 84.1703 52.5 85.8703C51.2516 87.4906 50.0297 89.4031 48.8078 91.6344H62.9656L53.4031 74.9797C48.9938 72.775 44.2922 71.1015 38.7672 70.5172C37.2797 70.3578 35.7125 70.2781 34.0922 70.2781ZM92.7687 70.2781C91.4937 70.3047 90.2719 70.3844 89.0766 70.5172C80.0453 71.4734 73.2453 75.2984 66.3391 79.6547V79.7344C64.7187 79.2297 63.0719 79.1234 61.4781 79.4156L68.4641 91.6344H79.9391C78.3453 89.4562 76.8047 87.5437 75.2375 85.8969C79.2219 84.1703 83.5781 82.8687 88.5453 82.3375C98.5062 81.275 110.725 83.4797 126.848 91.1297V79.8406C112.744 72.8547 102.119 70.3047 93.5922 70.2781H92.7687Z" fill="black"/>
</svg>
