<svg width="106" height="115" viewBox="0 0 106 115" fill="none" xmlns="http://www.w3.org/2000/svg">
<path d="M96.9555 9.27476H83.7545V4.87444C83.7545 3.7074 83.2909 2.58817 82.4657 1.76295C81.6405 0.937725 80.5213 0.474121 79.3542 0.474121C78.1872 0.474121 77.0679 0.937725 76.2427 1.76295C75.4175 2.58817 74.9539 3.7074 74.9539 4.87444V9.27476H30.9507V4.87444C30.9507 3.7074 30.4871 2.58817 29.6619 1.76295C28.8366 0.937725 27.7174 0.474121 26.5504 0.474121C25.3833 0.474121 24.2641 0.937725 23.4389 1.76295C22.6136 2.58817 22.15 3.7074 22.15 4.87444V9.27476H8.94908C6.615 9.27476 4.37653 10.202 2.72609 11.8524C1.07564 13.5029 0.148438 15.7413 0.148438 18.0754V106.082C0.148438 108.416 1.07564 110.654 2.72609 112.305C4.37653 113.955 6.615 114.882 8.94908 114.882H96.9555C99.2896 114.882 101.528 113.955 103.178 112.305C104.829 110.654 105.756 108.416 105.756 106.082V18.0754C105.756 15.7413 104.829 13.5029 103.178 11.8524C101.528 10.202 99.2896 9.27476 96.9555 9.27476ZM44.1516 92.8809C44.1516 94.0479 43.688 95.1671 42.8628 95.9924C42.0376 96.8176 40.9184 97.2812 39.7513 97.2812C38.5843 97.2812 37.465 96.8176 36.6398 95.9924C35.8146 95.1671 35.351 94.0479 35.351 92.8809V64.7958L32.9198 66.0169C31.8753 66.5392 30.6661 66.6251 29.5583 66.2558C28.4504 65.8865 27.5346 65.0923 27.0124 64.0478C26.4901 63.0033 26.4042 61.7941 26.7735 60.6862C27.1428 59.5784 27.937 58.6626 28.9815 58.1403L37.7822 53.74C38.4533 53.4042 39.1992 53.2456 39.9488 53.2793C40.6985 53.3129 41.4272 53.5378 42.0655 53.9325C42.7037 54.3271 43.2305 54.8785 43.5956 55.5341C43.9608 56.1897 44.1522 56.9278 44.1516 57.6783V92.8809ZM74.9539 88.4805C76.1209 88.4805 77.2402 88.9441 78.0654 89.7694C78.8906 90.5946 79.3542 91.7138 79.3542 92.8809C79.3542 94.0479 78.8906 95.1671 78.0654 95.9924C77.2402 96.8176 76.1209 97.2812 74.9539 97.2812H57.3526C56.5354 97.2812 55.7344 97.0536 55.0392 96.624C54.3441 96.1944 53.7823 95.5797 53.4168 94.8487C53.0514 94.1178 52.8967 93.2996 52.9701 92.4857C53.0435 91.6718 53.342 90.8944 53.8324 90.2407L69.6625 69.1356C70.0226 68.6563 70.2809 68.1084 70.4216 67.5256C70.5623 66.9428 70.5825 66.3375 70.4808 65.7466C70.3791 65.1558 70.1578 64.5919 69.8304 64.0897C69.503 63.5875 69.0764 63.1575 68.5768 62.826C68.0772 62.4946 67.5152 62.2688 66.9252 62.1624C66.3352 62.056 65.7296 62.0713 65.1457 62.2073C64.5619 62.3433 64.0119 62.5972 63.5297 62.9535C63.0475 63.3097 62.6431 63.7607 62.3415 64.2788C62.0611 64.7952 61.6801 65.2502 61.221 65.6169C60.7619 65.9837 60.234 66.2548 59.6684 66.4142C59.1028 66.5736 58.5111 66.6182 57.928 66.5452C57.3449 66.4722 56.7824 66.2832 56.2736 65.9893C55.7647 65.6954 55.3199 65.3026 54.9654 64.834C54.6108 64.3654 54.3538 63.8305 54.2093 63.2609C54.0648 62.6913 54.0358 62.0986 54.1241 61.5177C54.2125 60.9367 54.4162 60.3794 54.7234 59.8785C56.177 57.3631 58.4197 55.3974 61.104 54.2862C63.7882 53.175 66.7641 52.9803 69.5702 53.7323C72.3764 54.4842 74.8561 56.1409 76.625 58.4455C78.394 60.75 79.3532 63.5738 79.3542 66.4789C79.3635 69.3487 78.428 72.1418 76.692 74.427L66.1533 88.4805H74.9539ZM8.94908 35.6767V18.0754H22.15V22.4757C22.15 23.6428 22.6136 24.762 23.4389 25.5872C24.2641 26.4124 25.3833 26.876 26.5504 26.876C27.7174 26.876 28.8366 26.4124 29.6619 25.5872C30.4871 24.762 30.9507 23.6428 30.9507 22.4757V18.0754H74.9539V22.4757C74.9539 23.6428 75.4175 24.762 76.2427 25.5872C77.0679 26.4124 78.1872 26.876 79.3542 26.876C80.5213 26.876 81.6405 26.4124 82.4657 25.5872C83.2909 24.762 83.7545 23.6428 83.7545 22.4757V18.0754H96.9555V35.6767H8.94908Z" fill="black"/>
</svg>
